<?xml version="1.0" encoding="UTF-8" standalone="no"?>
<!-- Generator: Adobe Illustrator 16.0.0, SVG Export Plug-In . SVG Version: 6.00 Build 0)  -->

<svg
   xmlns:dc="http://purl.org/dc/elements/1.1/"
   xmlns:cc="http://creativecommons.org/ns#"
   xmlns:rdf="http://www.w3.org/1999/02/22-rdf-syntax-ns#"
   xmlns:svg="http://www.w3.org/2000/svg"
   xmlns="http://www.w3.org/2000/svg"
   xmlns:sodipodi="http://sodipodi.sourceforge.net/DTD/sodipodi-0.dtd"
   xmlns:inkscape="http://www.inkscape.org/namespaces/inkscape"
   version="1.1"
   id="Capa_1"
   x="0px"
   y="0px"
   width="390.63818"
   height="142"
   viewBox="0 0 390.63817 142"
   xml:space="preserve"
   sodipodi:docname="tillbaka.svg"
   inkscape:version="0.92.4 (5da689c313, 2019-01-14)"><metadata
   id="metadata45"><rdf:RDF><cc:Work
       rdf:about=""><dc:format>image/svg+xml</dc:format><dc:type
         rdf:resource="http://purl.org/dc/dcmitype/StillImage" /><dc:title></dc:title></cc:Work></rdf:RDF></metadata><defs
   id="defs43" /><sodipodi:namedview
   pagecolor="#ffffff"
   bordercolor="#666666"
   borderopacity="1"
   objecttolerance="10"
   gridtolerance="10"
   guidetolerance="10"
   inkscape:pageopacity="0"
   inkscape:pageshadow="2"
   inkscape:window-width="1920"
   inkscape:window-height="996"
   id="namedview41"
   showgrid="false"
   fit-margin-top="0"
   fit-margin-left="0"
   fit-margin-right="0"
   fit-margin-bottom="0"
   inkscape:zoom="0.73052122"
   inkscape:cx="-228.43071"
   inkscape:cy="23.603117"
   inkscape:window-x="-8"
   inkscape:window-y="-8"
   inkscape:window-maximized="1"
   inkscape:current-layer="g8533" />
<g
   id="g8"
   transform="rotate(-169.10704,103.43438,145.30435)">
	<g
   id="g6"
   transform="rotate(-2.9592646,157.55313,168.49335)">
		
		
	<g
   id="g8533"><g
   id="g4769"><path
     d="m 206.53631,251.72643 c -16.27512,20.50242 -33.47184,-13.08685 -40.86962,-38.66203 -0.42273,-1.26819 -0.6341,-2.74775 -0.84546,-4.01594 17.12057,-3.80457 33.81842,-16.27512 35.29798,-31.28204 1.26819,-13.52737 -12.47055,-17.54331 -21.55925,-9.93416 -10.77962,9.0887 -18.38877,22.4047 -19.02286,36.56582 -10.99099,1.47956 -21.77061,-1.47955 -27.68884,-12.25918 -9.93416,-18.17705 3.38184,-42.69576 21.13652,-49.88217 1.90228,-0.6341 1.05682,-3.59321 -0.84546,-2.95911 -24.51836,6.97539 -37.20027,41.21655 -20.50242,61.50726 6.55232,7.82085 17.12057,10.35689 28.11156,9.0887 1.47956,14.37283 15.95802,44.97159 29.27368,49.41026 15.42966,5.07276 13.6714,13.97232 22.7601,1.92416 0.23656,9.72711 -3.76672,-11.19249 -5.24593,-9.50157 z m -32.62638,-71.21226 c 3.38184,-4.65004 7.82051,-9.93417 13.52737,-11.83645 5.49515,-1.90229 7.39778,5.70686 7.6088,9.0887 0.21136,4.2273 -2.74775,8.03187 -5.4955,10.99099 -5.70651,6.55197 -15.21794,12.25918 -24.94074,14.79521 0.6341,-8.24324 4.65003,-16.27477 9.30007,-23.03845 z"
     id="path2"
     inkscape:connector-curvature="0"
     sodipodi:nodetypes="cccccccccccccccccccc"
     style="stroke-width:0.34536791" /><path
     d="m 225.80101,263.7308 c -3.18639,-4.98722 -6.8428,-9.92496 -11.16219,-13.93746 -1.78595,-1.61758 -3.88886,0.9797 -2.28066,2.71165 3.21605,3.46333 5.65532,7.67378 7.98079,11.70611 -2.429,1.30109 -5.03641,2.71616 -7.5795,3.83933 -2.00875,0.78176 -5.47707,1.24195 -6.57542,3.44863 -0.54947,1.10353 0.0195,1.9941 0.94505,2.65689 2.25616,1.56838 5.99658,-0.8214 8.18344,-1.71697 3.54776,-1.51423 6.68903,-3.27081 9.8954,-5.31938 1.0681,-0.68243 1.27588,-2.32011 0.59309,-3.3888 z"
     id="path4"
     inkscape:connector-curvature="0"
     style="stroke-width:0.34536791" /><text
     xml:space="preserve"
     style="font-style:normal;font-weight:normal;font-size:37.33333206px;line-height:1.25;font-family:sans-serif;letter-spacing:0px;word-spacing:0px;fill:#000000;fill-opacity:1;stroke:none"
     x="-114.17469"
     y="-243.37711"
     id="text8527"
     transform="rotate(172.0663)"><tspan
       sodipodi:role="line"
       id="tspan8525"
       x="-114.17469"
       y="-243.37711">tillbaka till KOLLI</tspan></text>
</g>
</g></g>
</g>
<g
   id="g10"
   transform="translate(-112.07543,-43.131665)">
</g>
<g
   id="g12"
   transform="translate(-112.07543,-43.131665)">
</g>
<g
   id="g14"
   transform="translate(-112.07543,-43.131665)">
</g>
<g
   id="g16"
   transform="translate(-112.07543,-43.131665)">
</g>
<g
   id="g18"
   transform="translate(-112.07543,-43.131665)">
</g>
<g
   id="g20"
   transform="translate(-112.07543,-43.131665)">
</g>
<g
   id="g22"
   transform="translate(-112.07543,-43.131665)">
</g>
<g
   id="g24"
   transform="translate(-112.07543,-43.131665)">
</g>
<g
   id="g26"
   transform="translate(-112.07543,-43.131665)">
</g>
<g
   id="g28"
   transform="translate(-112.07543,-43.131665)">
</g>
<g
   id="g30"
   transform="translate(-112.07543,-43.131665)">
</g>
<g
   id="g32"
   transform="translate(-112.07543,-43.131665)">
</g>
<g
   id="g34"
   transform="translate(-112.07543,-43.131665)">
</g>
<g
   id="g36"
   transform="translate(-112.07543,-43.131665)">
</g>
<g
   id="g38"
   transform="translate(-112.07543,-43.131665)">
</g>
</svg>