<?xml version="1.0" encoding="iso-8859-1"?>
<!-- Generator: Adobe Illustrator 22.0.0, SVG Export Plug-In . SVG Version: 6.00 Build 0)  -->
<svg version="1.1" id="Lager_1" xmlns="http://www.w3.org/2000/svg" xmlns:xlink="http://www.w3.org/1999/xlink" x="0px" y="0px"
	 viewBox="0 0 701.435 142.328" style="enable-background:new 0 0 701.435 142.328;" xml:space="preserve">
<path style="fill:#0033CC;" d="M34.893,52.465C34.893,27.875,51.024,7.054,73.28,0H0l35.54,60.927
	C35.115,58.169,34.893,55.343,34.893,52.465"/>
<path style="fill:#009933;" d="M83.024,103.232c-10.577,0-20.344-3.461-28.236-9.309l28.236,48.405l28.236-48.405
	C103.368,99.771,93.601,103.232,83.024,103.232"/>
<path style="fill:#009933;" d="M166.049,0c0,0-64.007,0-65.331,0C63.519,0,54.643,28.906,54.643,42.481
	c0,6.083,1.282,11.865,3.586,17.096c0.353,0.711,0.705,1.409,1.049,2.089c4.434,8.062,12.861,13.611,22.617,13.996
	c0-0.002-0.001-0.002-0.001-0.002c-0.002-0.002-0.003-0.004-0.005-0.006c0.376,0.022,0.754,0.033,1.136,0.033
	c0.346,0,0.689-0.011,1.031-0.025c10.596-0.537,19.022-9.298,19.022-20.027c0-11.064-8.961-20.034-20.02-20.052
	c0.364-0.336,0.739-0.661,1.121-0.977c4.949-4.197,11.351-6.734,18.348-6.734c15.678,0,28.388,12.71,28.388,28.388
	c0,1.575-0.134,3.117-0.38,4.621L166.049,0"/>
<path d="M182.407,49.411c0,0-7.115-17.511-7.201-17.895c-0.298-1.022-0.212-1.917,0.895-2.343h-9.416
	c1.278,0.511,1.789,1.193,2.301,2.045c0.809,1.577,11.929,27.822,11.929,27.822s10.269-26.16,10.993-27.822
	c0.426-1.022,0.511-1.321,1.619-2.045h-5.198c1.108,0.426,1.278,1.023,0.895,2.131C189.182,31.601,182.407,49.411,182.407,49.411"/>
<path d="M236.2,40.421c-4.005-1.832-5.837-2.812-5.837-5.411c0-1.832,1.277-4.091,4.516-4.091c4.09,0,6.519,3.409,7.115,5.667
	l-0.213-6.306c-2.173-1.277-4.985-1.576-6.434-1.576c-3.876,0-9.288,2.301-9.288,8.095c0,3.238,1.705,5.539,5.624,7.712
	c3.877,2.088,7.584,2.642,7.584,6.732c0,2.088-1.278,5.113-5.496,5.113c-4.431,0-6.987-4.005-7.797-7.03l0.213,7.2
	c1.492,0.725,4.303,2.045,8.18,2.045c5.241,0,9.928-3.621,9.928-8.947C244.295,43.702,240.162,42.296,236.2,40.421"/>
<path d="M269.044,31.601c1.022,0.085,1.619,0.98,2.003,1.705v-4.133h-23.349v4.133c0.384-0.725,1.108-1.705,2.131-1.705
	c0,0,3.664-0.298,6.817-0.298v24.925c0,0.937-0.426,1.533-1.108,1.917h7.627c-0.639-0.384-1.108-0.98-1.108-1.917V31.303
	C265.167,31.303,269.044,31.601,269.044,31.601"/>
<path style="fill-rule:evenodd;clip-rule:evenodd;" d="M285.589,31.218c4.218,0,5.411,3.408,5.411,5.368
	c0,4.304-3.068,5.923-5.965,5.923c-0.724,0-1.917-0.085-1.917-0.085v-11.12C283.118,31.304,284.311,31.218,285.589,31.218
	 M296.624,36.331c0-2.854-2.002-7.158-10.822-7.158h-9.203c0.682,0.341,1.108,0.937,1.108,1.917v25.138
	c0,0.937-0.426,1.534-1.108,1.917h7.712c-0.725-0.383-1.193-0.98-1.193-1.917V44.597c0,0,1.363-0.086,1.874-0.086
	c1.833,0,2.812,1.833,3.92,3.537c1.534,2.386,3.409,5.496,5.326,8.18c0.767,1.023,2.173,2.002,3.792,2.002l5.539-0.085
	c0,0-1.918-0.681-2.727-1.704c-1.491-1.704-6.604-9.799-6.604-9.799c-0.639-0.937-1.917-2.897-4.815-3.196
	C292.449,43.233,296.624,40.933,296.624,36.331z"/>
<path style="fill-rule:evenodd;clip-rule:evenodd;" d="M313.306,47.92c1.363-3.196,4.261-10.439,4.261-10.439
	s2.343,5.709,4.346,10.439H313.306 M319.186,28.278c0,0-11.206,26.161-12.015,27.779c-0.426,0.81-0.81,1.279-2.002,2.088h5.879
	c-1.151-0.511-1.363-1.108-0.98-2.13c0.085-0.469,1.108-2.983,2.386-5.879h10.439c1.192,2.896,2.3,5.496,2.428,5.921
	c0.299,0.895,0.085,1.492-1.022,2.088h9.117c-1.406-0.724-1.704-1.193-2.13-2.088C330.519,54.439,319.186,28.278,319.186,28.278z"/>
<path d="M212.499,26.381c1.19,0,2.199-0.938,2.199-2.199c0-1.19-1.009-2.127-2.199-2.127c-1.189,0-2.127,0.937-2.127,2.127
	C210.372,25.443,211.31,26.381,212.499,26.381"/>
<path style="fill-rule:evenodd;clip-rule:evenodd;" d="M202.103,47.919c1.363-3.195,4.26-10.438,4.26-10.438
	s2.344,5.709,4.347,10.438H202.103 M222.213,58.145c-1.406-0.724-1.704-1.193-2.13-2.088c-0.767-1.618-12.1-27.779-12.1-27.779
	s-11.206,26.161-12.015,27.779c-0.426,0.81-0.81,1.278-2.003,2.088h5.88c-1.151-0.511-1.364-1.108-0.98-2.13
	c0.085-0.469,1.108-2.983,2.386-5.88h10.439c1.192,2.897,2.3,5.496,2.428,5.922c0.298,0.895,0.085,1.491-1.023,2.088H222.213z"/>
<path d="M203.035,26.381c1.19,0,2.199-0.938,2.199-2.199c0-1.19-1.009-2.127-2.199-2.127c-1.189,0-2.127,0.937-2.127,2.127
	C200.908,25.443,201.846,26.381,203.035,26.381"/>
<path d="M185.711,72.644c-11.008,0-16.642,7.654-16.642,15.18c0,9.16,7.569,14.965,16.126,14.965c3.44,0,9.547-1.118,13.159-3.139
	c-0.215-0.129-0.688-0.903-0.688-1.764v-6.363c0-0.99,0.473-1.592,1.118-1.979h-7.697c0.688,0.387,1.118,0.989,1.118,1.979v7.482
	c-2.021,1.332-4.559,1.418-5.462,1.418c-8.901,0-11.825-7.267-11.825-13.158c0-6.924,4.214-12.299,11.525-12.299
	c2.021,0,7.482,0.903,9.675,6.752l-0.302-6.838C192.419,73.417,189.237,72.644,185.711,72.644"/>
<path d="M262.662,75.568c1.032,0.086,1.634,0.99,2.021,1.721v-4.172h-23.565v4.172c0.387-0.731,1.118-1.721,2.15-1.721
	c0,0,3.698-0.301,6.88-0.301v25.156c0,0.948-0.43,1.549-1.117,1.936h7.697c-0.645-0.387-1.118-0.988-1.118-1.936V75.267
	C258.749,75.267,262.662,75.568,262.662,75.568"/>
<path style="fill-rule:evenodd;clip-rule:evenodd;" d="M273.908,92.039c1.376-3.226,4.3-10.535,4.3-10.535s2.365,5.762,4.386,10.535
	H273.908 M279.842,72.215c0,0-11.31,26.404-12.126,28.037c-0.431,0.817-0.818,1.291-2.021,2.108h5.934
	c-1.161-0.516-1.376-1.12-0.989-2.151c0.086-0.473,1.118-3.01,2.408-5.933h10.536c1.203,2.923,2.322,5.546,2.45,5.976
	c0.302,0.904,0.087,1.506-1.032,2.108h9.203c-1.419-0.731-1.72-1.204-2.15-2.108C291.281,98.619,279.842,72.215,279.842,72.215z"/>
<path d="M308.118,73.117h-7.784c0.731,0.344,1.204,0.947,1.204,1.936v25.371c0,0.947-0.473,1.548-1.204,1.935h18.104l0.947-4.945
	c-1.334,2.494-2.839,2.537-7.612,2.709c-1.935,0-3.913-0.172-4.773-0.215V75.053C307,74.064,307.429,73.461,308.118,73.117"/>
<path style="fill-rule:evenodd;clip-rule:evenodd;" d="M331.005,92.039c1.376-3.226,4.3-10.535,4.3-10.535s2.365,5.762,4.386,10.535
	H331.005 M336.939,72.215c0,0-11.31,26.404-12.127,28.037c-0.43,0.817-0.817,1.291-2.021,2.108h5.935
	c-1.162-0.516-1.376-1.12-0.99-2.151c0.087-0.473,1.118-3.01,2.409-5.933h10.535c1.204,2.923,2.323,5.546,2.451,5.976
	c0.302,0.904,0.086,1.506-1.032,2.108h9.203c-1.419-0.731-1.72-1.204-2.15-2.108C348.378,98.619,336.939,72.215,336.939,72.215z"/>
<path d="M379.08,92.039l-15.867-18.922h-7.397c0.903,0.516,1.504,1.119,1.934,1.635c0.818,0.988,0.775,1.031,0.775,2.709v22.963
	c0,0.947-0.472,1.549-1.119,1.935h4.774c-0.731-0.386-1.204-0.988-1.204-1.935V78.879c0,0.346,20.641,24.685,20.641,24.685V75.053
	c0-0.989,0.473-1.592,1.117-1.936h-4.771c0.687,0.344,1.117,0.947,1.117,1.936V92.039"/>
<path style="fill-rule:evenodd;clip-rule:evenodd;" d="M404.266,75.267c8.902,0,11.912,6.881,11.912,12.041
	c0,6.278-2.709,12.815-12.428,12.815c-0.816,0-2.408,0-3.44,0v-24.77C400.955,75.267,403.234,75.267,404.266,75.267 M405.168,73.117
	h-11.437c0.644,0.344,1.117,0.947,1.117,1.936v25.371c0,0.947-0.473,1.548-1.117,1.935h11.05c11.612,0,17.373-7.568,17.373-15.051
	C422.154,83.137,419.316,73.117,405.168,73.117z"/>
<path d="M441.035,84.471c-4.043-1.85-5.893-2.838-5.893-5.461c0-1.85,1.291-4.129,4.559-4.129c4.129,0,6.58,3.44,7.182,5.719
	l-0.215-6.363c-2.194-1.291-5.032-1.592-6.494-1.592c-3.913,0-9.373,2.322-9.373,8.17c0,3.269,1.718,5.59,5.675,7.783
	c3.913,2.107,7.655,2.668,7.655,6.795c0,2.107-1.291,5.16-5.547,5.16c-4.473,0-7.053-4.041-7.869-7.096l0.215,7.268
	c1.503,0.732,4.341,2.064,8.255,2.064c5.289,0,10.02-3.654,10.02-9.031C449.205,87.781,445.033,86.362,441.035,84.471"/>
<path style="fill-rule:evenodd;clip-rule:evenodd;" d="M468.021,75.182c4.258,0,5.461,3.439,5.461,5.418
	c0,4.344-3.095,5.978-6.019,5.978c-0.733,0-1.936-0.086-1.936-0.086V75.268C465.527,75.268,466.73,75.182,468.021,75.182
	 M479.158,80.342c0-2.881-2.021-7.225-10.922-7.225h-9.289c0.688,0.344,1.119,0.948,1.119,1.936v25.371
	c0,0.947-0.431,1.549-1.119,1.936h7.783c-0.73-0.387-1.203-0.989-1.203-1.936v-11.74c0,0,1.375-0.086,1.893-0.086
	c1.847,0,2.838,1.849,3.955,3.57c1.549,2.408,3.441,5.547,5.375,8.256c0.775,1.033,2.193,2.022,3.828,2.022l5.59-0.086
	c0,0-1.936-0.688-2.752-1.721c-1.506-1.719-6.666-9.891-6.666-9.891c-0.645-0.945-1.934-2.924-4.86-3.224
	C474.945,87.309,479.158,84.986,479.158,80.342z"/>
<path d="M508.994,73.117h-17.287c0.687,0.344,1.291,0.947,1.291,1.936v25.371c0,1.033-0.559,1.506-1.291,1.935h18.492l0.903-4.945
	c-1.592,2.709-3.311,2.623-7.053,2.709c-2.108,0.086-4.731-0.086-5.59-0.215V87.265h6.494c0.602,0,1.332,0.645,1.547,1.247v-4.557
	c-0.215,0.516-0.945,1.203-1.547,1.203h-6.494v-9.891c0,0,6.019,0,7.31,0.086c1.633,0.086,2.537,0.43,3.354,1.549L508.994,73.117"/>
<path d="M533.582,72.644c-11.01,0-16.642,7.654-16.642,15.18c0,9.16,7.568,14.965,16.125,14.965c3.441,0,9.546-1.118,13.16-3.139
	c-0.215-0.129-0.69-0.903-0.69-1.764v-6.363c0-0.99,0.475-1.592,1.119-1.979h-7.697c0.688,0.387,1.117,0.989,1.117,1.979v7.482
	c-2.021,1.332-4.558,1.418-5.461,1.418c-8.902,0-11.826-7.267-11.826-13.158c0-6.924,4.215-12.299,11.526-12.299
	c2.021,0,7.482,0.903,9.675,6.752l-0.3-6.838C540.289,73.417,537.107,72.644,533.582,72.644"/>
<path d="M556.379,73.117c0.688,0.344,1.119,0.947,1.119,1.936v25.371c0,0.947-0.431,1.548-1.119,1.935h7.783
	c-0.73-0.387-1.117-0.988-1.117-1.935V75.053c0-0.989,0.387-1.592,1.117-1.936H556.379"/>
<path style="fill-rule:evenodd;clip-rule:evenodd;" d="M589.135,74.881c5.719,0,9.976,4.902,9.891,13.201
	c0,7.783-4.172,12.256-9.805,12.256c-4.945,0-10.106-4.172-10.106-13.33C579.201,79.396,583.457,74.881,589.135,74.881
	 M605.088,87.824c0.129-9.762-8.213-15.094-15.566-15.18c-10.321-0.129-16.256,7.397-16.385,14.836
	c-0.172,8.815,7.053,15.18,15.697,15.309C596.617,102.875,604.916,97.887,605.088,87.824z"/>
<path d="M634.713,92.039l-15.869-18.922h-7.397c0.905,0.516,1.506,1.119,1.936,1.635c0.816,0.988,0.773,1.031,0.773,2.709v22.963
	c0,0.947-0.472,1.549-1.117,1.935h4.774c-0.731-0.386-1.205-0.988-1.205-1.935V78.879c0,0.346,20.642,24.685,20.642,24.685V75.053
	c0-0.989,0.473-1.592,1.117-1.936h-4.773c0.687,0.344,1.119,0.947,1.119,1.936V92.039"/>
<path d="M665.617,73.117H648.33c0.687,0.344,1.289,0.947,1.289,1.936v25.371c0,1.033-0.559,1.506-1.289,1.935h18.49l0.904-4.945
	c-1.591,2.709-3.312,2.623-7.052,2.709c-2.108,0.086-4.731-0.086-5.59-0.215V87.265h6.492c0.604,0,1.334,0.645,1.549,1.247v-4.557
	c-0.215,0.516-0.945,1.203-1.549,1.203h-6.492v-9.891c0,0,6.019,0,7.31,0.086c1.633,0.086,2.538,0.43,3.354,1.549L665.617,73.117"/>
<path d="M697.779,92.039l-15.867-18.922h-7.397c0.903,0.516,1.506,1.119,1.936,1.635c0.816,0.988,0.773,1.031,0.773,2.709v22.963
	c0,0.947-0.472,1.549-1.117,1.935h4.774c-0.733-0.386-1.206-0.988-1.206-1.935V78.879c0,0.346,20.641,24.685,20.641,24.685V75.053
	c0-0.989,0.475-1.592,1.119-1.936h-4.773c0.687,0.344,1.117,0.947,1.117,1.936V92.039"/>
<path style="fill-rule:evenodd;clip-rule:evenodd;" d="M221.571,74.881c5.72,0,9.976,4.902,9.89,13.201
	c0,7.783-4.17,12.256-9.804,12.256c-4.946,0-10.106-4.172-10.106-13.33C211.637,79.396,215.895,74.881,221.571,74.881
	 M237.525,87.824c0.129-9.762-8.213-15.094-15.567-15.18c-10.321-0.129-16.255,7.397-16.384,14.836
	c-0.172,8.815,7.053,15.18,15.696,15.309C229.053,102.875,237.353,97.887,237.525,87.824z"/>
<path d="M226.284,70.541c1.201,0,2.22-0.946,2.22-2.22c0-1.2-1.019-2.147-2.22-2.147c-1.201,0-2.147,0.947-2.147,2.147
	C224.137,69.595,225.083,70.541,226.284,70.541"/>
<path d="M216.732,70.541c1.201,0,2.22-0.946,2.22-2.22c0-1.2-1.019-2.147-2.22-2.147c-1.201,0-2.147,0.947-2.147,2.147
	C214.585,69.595,215.531,70.541,216.732,70.541"/>
</svg>
